# xmcd
#
# Track frame offsets: 
#        182
#        1010
#        1652
#        2250
#        5227
#        6385
#        7290
#        8110
#        9005
#        9567
#        10200
#        10805
#        11407
#
# Disc length: 187 seconds
#
# Revision: 0
# Processed by: cddbd v1.5.1PL0 Copyright (c) Steve Scherf et al.
# Submitted via: ExactAudioCopy v0.95a5
#
DISCID=6a00b90d
DTITLE=Various Artist - Holiday Greetings From Geffen Records (Promo CD)
DYEAR=1991
DGENRE=Christmas/Holiday
TTITLE0=Robbie Robertson - Holiday Greeting
TTITLE1=Slash - Merry Christmas
TTITLE2=Axl - Under The Mistletoe
TTITLE3=XTC - Merry Christmas Song
TTITLE4=Thunder - Holiday Greeting
TTITLE5=John Kilzer - Holiday Greeting
TTITLE6=Don Dokken - Holiday Greeting
TTITLE7=Junkyard - Holiday Greeting
TTITLE8=Roxy Blue - Holiday Greeting
TTITLE9=Slash - Fuckin' Riot
TTITLE10=Axl - Fuckin' Riot
TTITLE11=Axl - Fuckin' Holiday Season
TTITLE12=XTC - Psychedelic Christmas
EXTD=
EXTT0=
EXTT1=
EXTT2=
EXTT3=
EXTT4=
EXTT5=
EXTT6=
EXTT7=
EXTT8=
EXTT9=
EXTT10=
EXTT11=
EXTT12=
PLAYORDER=
